Paranorman 2012 BluRay Xvid-aTLas
 
http://www.imdb.com/title/tt1623288/

Plot:
In the town of Blithe Hollow, Norman Babcock is a boy who can
speak to the dead, but no one besides his eccentric new friend,
Neil, believes his ability is real. One day, Norman's estranged
eccentric uncle tells him of an important annual ritual he must
take up to protect the town from curse cast by a witch it condemned
centuries ago. Eventually, Norman decides to cooperate, but things don't
go according to plan.

Format                                   : AVI
Format/Info                              : Audio Video Interleave
File size                                : 702 MiB
Duration                                 : 1h 32mn
Overall bit rate                         : 1 064 Kbps

Video
ID                                       : 0
Format                                   : MPEG-4 Visual
Format profile                           : Advanced Simple@L5
Format settings, BVOP                    : 2
Format settings, QPel                    : No
Format settings, GMC                     : No warppoints
Format settings, Matrix                  : Default (H.263)
Codec ID                                 : XVID
Codec ID/Hint                            : XviD
Duration                                 : 1h 32mn
Bit rate                                 : 930 Kbps
Width                                    : 720 pixels
Height                                   : 304 pixels
Display aspect ratio                     : 2.40:1
Frame rate                               : 23.976 fps
Color space                              : YUV
Chroma subsampling                       : 4:2:0
Bit depth                                : 8 bits
Scan type                                : Progressive
Compression mode                         : Lossy
Bits/(Pixel*Frame)                       : 0.177
Stream size                              : 614 MiB (87%)
Writing library                          : XviD 1.2.1 (UTC 2008-12-04)

Audio
ID                                       : 1
Format                                   : MPEG Audio
Format version                           : Version 1
Format profile                           : Layer 3
Mode                                     : Joint stereo
Mode extension                           : MS Stereo
Codec ID                                 : 55
Codec ID/Hint                            : MP3
Duration                                 : 1h 32mn
Bit rate mode                            : Constant
Bit rate                                 : 128 Kbps
Channel(s)                               : 2 channels
Sampling rate                            : 48.0 KHz
Compression mode                         : Lossy
Stream size                              : 84.5 MiB (12%)
Alignment                                : Aligned on interleaves
Interleave, duration                     : 167 ms (4.00 video frames)
Interleave, preload duration             : 216 ms
Title                                    : paranorman.2012.1080p.bluray.x264-alliance - [2] English
Writing library                          : LAME3.99r
Encoding settings                        : -m j -V 4 -q 2 -lowpass 17 -b 128